<?xml version="1.0" standalone="no"?>
<!DOCTYPE svg PUBLIC "-//W3C//DTD SVG 20010904//EN"
 "http://www.w3.org/TR/2001/REC-SVG-20010904/DTD/svg10.dtd">
<svg version="1.0" xmlns="http://www.w3.org/2000/svg"
 width="270.000000pt" height="270.000000pt" viewBox="0 0 270.000000 270.000000"
 preserveAspectRatio="xMidYMid meet">
<metadata>
Created by potrace 1.11, written by Peter Selinger 2001-2013
</metadata>
<g transform="translate(0.000000,270.000000) scale(0.100000,-0.100000)"
fill="#000000" stroke="none">
<path d="M434 2460 c-146 -47 -227 -181 -194 -321 11 -44 24 -64 69 -109 47
-46 74 -63 162 -98 138 -56 169 -76 169 -105 0 -67 -117 -84 -220 -32 -30 15
-62 34 -71 41 -14 12 -24 5 -83 -66 -55 -66 -65 -84 -56 -95 21 -26 167 -93
227 -105 33 -7 91 -10 135 -7 179 12 308 127 308 276 0 133 -57 203 -215 265
-148 58 -184 76 -190 97 -25 79 102 105 215 43 28 -15 52 -25 54 -23 19 19
106 133 106 139 0 3 -10 15 -22 26 -98 86 -259 116 -394 74z"/>
<path d="M2053 2462 c-174 -62 -251 -223 -177 -370 35 -71 87 -108 239 -172
141 -59 162 -78 131 -124 -32 -50 -149 -43 -240 14 -26 17 -50 30 -55 30 -5 0
-36 -34 -71 -75 -59 -72 -61 -77 -46 -94 9 -10 45 -32 79 -50 220 -110 471
-63 557 105 20 40 25 63 25 124 0 65 -5 83 -29 124 -35 60 -86 93 -237 151
-65 25 -123 52 -129 60 -6 8 -10 26 -8 42 8 70 124 68 260 -5 3 -1 32 29 63
68 56 69 57 71 39 91 -10 11 -51 36 -91 56 -64 32 -83 36 -165 40 -73 3 -104
0 -145 -15z"/>
<path d="M1030 2026 l0 -446 115 0 115 0 0 145 0 145 48 0 47 0 73 -145 72
-145 130 0 c71 0 130 2 130 4 0 2 -40 76 -90 164 -49 89 -90 163 -90 166 0 3
22 26 50 52 63 59 85 114 85 214 0 138 -64 224 -195 265 -42 13 -109 18 -272
22 l-218 6 0 -447z m418 233 c32 -20 47 -73 33 -119 -16 -54 -50 -73 -143 -78
l-78 -5 0 113 0 113 83 -5 c46 -2 92 -11 105 -19z"/>
<path d="M1173 1240 c-35 -5 -109 -18 -165 -30 -180 -37 -289 -50 -468 -57
-97 -3 -181 -10 -188 -16 -10 -8 -12 -29 -7 -86 4 -42 8 -83 11 -91 3 -13 -16
-15 -129 -15 -153 0 -235 -11 -218 -28 8 -8 69 -12 186 -12 96 0 175 -3 175
-7 0 -9 44 -11 52 -3 3 3 84 6 181 8 112 2 181 7 188 14 17 17 -138 36 -259
32 -56 -2 -102 -1 -102 4 0 4 5 7 10 7 6 0 10 19 10 42 l0 41 100 -7 c133 -8
194 -22 260 -58 45 -25 70 -31 138 -36 96 -5 92 5 38 -117 -38 -88 -76 -211
-101 -332 -21 -102 -45 -284 -39 -295 3 -4 25 -8 49 -8 l44 0 6 48 c12 94 45
288 55 325 l11 37 137 0 137 0 -27 -23 c-71 -60 -76 -151 -10 -220 57 -59 155
-56 211 8 54 62 50 144 -11 205 l-30 31 138 -3 138 -3 12 -55 c12 -51 35 -192
49 -303 l6 -48 47 3 47 3 -3 50 c-11 181 -86 482 -154 618 -16 32 -26 62 -24
66 3 5 41 10 83 13 61 3 88 10 123 31 62 36 143 55 266 63 l104 7 0 -42 c0
-22 5 -41 10 -41 6 0 10 -3 10 -7 0 -5 -46 -6 -102 -4 -121 4 -276 -15 -259
-32 7 -7 76 -12 188 -14 97 -2 178 -5 181 -8 8 -8 52 -6 52 3 0 4 79 7 175 7
117 0 178 4 186 12 17 17 -65 28 -218 28 -113 0 -132 2 -129 15 3 8 7 49 11
91 5 57 3 78 -7 86 -7 6 -89 13 -183 16 -177 7 -282 20 -500 63 -143 29 -378
40 -492 24z m65 -450 l42 0 0 -40 0 -40 -120 0 -120 0 24 53 c13 28 29 65 36
80 l14 28 41 -41 c35 -34 47 -40 83 -40z m371 33 c10 -21 26 -55 34 -75 l16
-38 -120 0 -119 0 0 40 0 40 43 0 c36 0 49 6 77 35 19 19 37 35 42 35 4 0 16
-17 27 -37z"/>
</g>
</svg>
