<?xml version="1.0" encoding="UTF-8" standalone="no"?>
<!-- Created with Inkscape (http://www.inkscape.org/) -->

<svg
   xmlns:dc="http://purl.org/dc/elements/1.1/"
   xmlns:cc="http://creativecommons.org/ns#"
   xmlns:rdf="http://www.w3.org/1999/02/22-rdf-syntax-ns#"
   xmlns:svg="http://www.w3.org/2000/svg"
   xmlns="http://www.w3.org/2000/svg"
   xmlns:sodipodi="http://sodipodi.sourceforge.net/DTD/sodipodi-0.dtd"
   xmlns:inkscape="http://www.inkscape.org/namespaces/inkscape"
   width="880.42993"
   height="180.90187"
   viewBox="0 0 880.42996 180.90187"
   id="svg2"
   version="1.1"
   inkscape:version="0.91 r13725"
   sodipodi:docname="logo.svg">
  <defs
     id="defs4" />
  <sodipodi:namedview
     id="base"
     pagecolor="#3d4983"
     bordercolor="#666666"
     borderopacity="1.0"
     inkscape:pageopacity="0"
     inkscape:pageshadow="2"
     inkscape:zoom="0.49497475"
     inkscape:cx="307.34681"
     inkscape:cy="206.32894"
     inkscape:document-units="px"
     inkscape:current-layer="layer1"
     showgrid="false"
     units="px"
     showguides="true"
     inkscape:guide-bbox="true"
     inkscape:window-width="1440"
     inkscape:window-height="837"
     inkscape:window-x="-8"
     inkscape:window-y="-8"
     inkscape:window-maximized="1"
     inkscape:snap-midpoints="true"
     fit-margin-top="30"
     fit-margin-left="30"
     fit-margin-bottom="30"
     fit-margin-right="30" />
  <metadata
     id="metadata7">
    <rdf:RDF>
      <cc:Work
         rdf:about="">
        <dc:format>image/svg+xml</dc:format>
        <dc:type
           rdf:resource="http://purl.org/dc/dcmitype/StillImage" />
        <dc:title></dc:title>
      </cc:Work>
    </rdf:RDF>
  </metadata>
  <g
     inkscape:label="Layer 1"
     inkscape:groupmode="layer"
     id="layer1"
     transform="translate(12.275026,-815.68951)">
    <text
       xml:space="preserve"
       style="font-style:normal;font-weight:normal;font-size:40px;line-height:125%;font-family:sans-serif;letter-spacing:0px;word-spacing:0px;fill:#000000;fill-opacity:1;stroke:none;stroke-width:1px;stroke-linecap:butt;stroke-linejoin:miter;stroke-opacity:1"
       x="682.85712"
       y="937.7193"
       id="text4292"
       sodipodi:linespacing="125%"><tspan
         sodipodi:role="line"
         id="tspan4294"
         x="682.85712"
         y="937.7193" /></text>
    <g
       id="g4719"
       transform="matrix(1.3532248,0,0,1.3532248,-497.58257,-347.73669)">
      <g
         transform="translate(-147.33213,300)"
         id="g4715">
        <path
           id="path4180"
           style="fill:#ffffff;fill-opacity:1;stroke:none;stroke-width:1;stroke-miterlimit:4;stroke-dasharray:none;stroke-opacity:1"
           d="m 843.56475,638.26009 c -3.52513,2.22791 -5.66318,6.1064 -5.66508,10.27654 1.6e-4,6.71747 5.44571,12.16301 12.16318,12.16316 6.71797,5.6e-4 12.16431,-5.44519 12.16446,-12.16316 -0.006,-4.17371 -2.15117,-8.05296 -5.68324,-10.27654 z m -18.0138,-9.93919 c -0.89457,2.6457 -1.70633,5.34716 -2.43678,8.05255 l 52.21314,0 c -0.78066,-2.70497 -1.6489,-5.40615 -2.59768,-8.05255 z m 19.2283,-6.20744 0,3.85759 10.56848,0 0,-3.85759 z m 2.36931,-40.20049 0,0.0247 c -26.31833,0.46466 -31.99384,8.75063 -81.02897,8.75063 -2.00753,0 -2.07313,7.83067 0,7.83067 45.9058,0 34.65499,8.63905 48.23616,8.63905 l 7.03528,-0.0312 c 1.27844,-2.2087 2.65497,-4.3135 4.14176,-6.27493 6.07325,-8.01202 14.25768,-13.73968 24.53265,-13.73968 a 2.7881413,2.7881413 0 0 1 0.3711,0.0286 c 0.22985,10e-4 0.49728,6.6e-4 0.6332,0.005 a 2.7881413,2.7881413 0 0 1 0.008,0 c 10.07451,0.36063 18.04214,6.2525 23.976,14.3132 1.31384,1.78474 2.53638,3.68557 3.68373,5.66637 2.42727,0.011 4.85455,0.0215 7.28181,0.0324 13.58117,0 2.33036,-8.63904 48.23617,-8.63904 2.07313,0 2.00753,-7.83068 0,-7.83068 -46.97219,0 -54.14696,-7.60736 -77.80199,-8.6559 -1.30999,-0.0581 -4.72237,-0.0896 -7.21304,-0.10511 l 0,-0.0143 c -0.26621,4.4e-4 -0.51646,0.007 -0.77853,0.009 -0.38857,-0.002 -1.05322,-0.009 -1.31311,-0.009 z m 2.91688,7.98768 c -0.51178,0 -1.01566,0.0215 -1.51553,0.0519 -0.11037,0.007 -0.22108,0.0126 -0.33087,0.0207 -0.4833,0.036 -0.96028,0.0854 -1.43249,0.14922 -0.0864,0.0117 -0.17214,0.025 -0.25822,0.0376 -0.46944,0.0687 -0.93501,0.14842 -1.39355,0.24394 -0.0322,0.007 -0.0652,0.0114 -0.0973,0.0181 -0.002,3.7e-4 -0.003,6.6e-4 -0.005,10e-4 -0.46787,0.0996 -0.92785,0.21712 -1.38447,0.34385 -0.0965,0.0268 -0.19336,0.0525 -0.28936,0.0804 -0.44186,0.12873 -0.87914,0.26957 -1.31052,0.423 -0.0927,0.033 -0.18417,0.0685 -0.27637,0.1025 -0.40548,0.14989 -0.80659,0.30898 -1.20283,0.4801 -0.0513,0.0221 -0.10328,0.0424 -0.1544,0.0649 -0.004,0.002 -0.009,0.003 -0.013,0.005 -0.40672,0.17923 -0.80707,0.37385 -1.20412,0.57481 -0.11753,0.0595 -0.23494,0.11905 -0.35163,0.18036 -0.38332,0.20153 -0.76234,0.41069 -1.13665,0.6319 -0.11181,0.066 -0.22246,0.13468 -0.33347,0.20242 -0.30976,0.18916 -0.61637,0.38549 -0.91996,0.58778 -0.0998,0.0665 -0.20055,0.13065 -0.29973,0.19853 -0.0283,0.0194 -0.0561,0.0402 -0.0843,0.0597 -0.28611,0.19745 -0.56798,0.4036 -0.84859,0.61244 -0.46093,0.34281 -0.91484,0.69941 -1.36113,1.07177 -0.0306,0.0256 -0.0629,0.0483 -0.0934,0.074 -0.50608,0.42545 -1.00208,0.86846 -1.48958,1.32998 -0.47242,0.44725 -0.93569,0.91438 -1.39096,1.39356 -0.0626,0.0659 -0.12328,0.13463 -0.18555,0.20112 -0.39043,0.41671 -0.7743,0.84435 -1.15222,1.28327 -0.0803,0.0933 -0.16027,0.18726 -0.24004,0.28157 -0.37766,0.44628 -0.74936,0.90293 -1.1146,1.3702 -0.0513,0.0656 -0.10336,0.12991 -0.1544,0.19593 -1.29349,1.67284 -2.50904,3.47267 -3.65129,5.37313 -10e-4,0.002 -0.003,0.003 -0.004,0.005 -14.29771,23.79369 -17.09644,63.215 -17.09644,63.215 l 7.54911,0 c 0,0 2.39564,-37.91181 15.5251,-58.57368 10e-4,-10e-4 10e-4,-0.003 0.003,-0.005 0.30556,-0.48074 0.61696,-0.95163 0.93423,-1.41302 1.59174,-2.31482 3.33297,-4.37758 5.23559,-6.09975 0.36814,-0.33323 0.74328,-0.65179 1.12367,-0.95889 0.054,-0.0435 0.10925,-0.0842 0.16349,-0.12716 0.32586,-0.25862 0.65511,-0.50874 0.99002,-0.74738 0.0913,-0.065 0.1844,-0.12597 0.27638,-0.18944 0.29777,-0.20567 0.59816,-0.40493 0.90309,-0.59427 0.12755,-0.0791 0.25657,-0.15478 0.38537,-0.23097 0.27447,-0.16254 0.55147,-0.31943 0.83173,-0.46841 0.14768,-0.0784 0.29705,-0.15379 0.44635,-0.22837 0.27012,-0.13508 0.54329,-0.26313 0.81875,-0.38537 0.16461,-0.073 0.32914,-0.14581 0.49567,-0.21409 0.27071,-0.11114 0.54551,-0.2129 0.82134,-0.31141 0.16607,-0.0593 0.33162,-0.11929 0.49955,-0.17388 0.27425,-0.0892 0.55246,-0.16865 0.83173,-0.24523 0.18681,-0.0512 0.37276,-0.10513 0.56183,-0.15051 0.27188,-0.0654 0.54866,-0.1181 0.82524,-0.17128 0.19228,-0.0369 0.38284,-0.0781 0.57741,-0.109 0.32503,-0.0517 0.65596,-0.0885 0.98743,-0.12327 0.14765,-0.0154 0.29223,-0.0386 0.44116,-0.0506 0.4899,-0.0396 0.98562,-0.062 1.48958,-0.0636 0.37602,0.0132 0.78793,0.0243 0.89012,0.0286 0.48227,0.0202 0.95687,0.0601 1.426,0.11548 0.16863,0.0199 0.3326,0.0521 0.49955,0.0766 0.29376,0.0429 0.58856,0.0837 0.87714,0.14013 0.19567,0.0383 0.3867,0.088 0.58,0.13235 0.2598,0.0597 0.52038,0.11636 0.77593,0.18685 0.19864,0.0547 0.39299,0.12046 0.58909,0.18165 0.23886,0.0746 0.47853,0.14832 0.71365,0.23226 0.19668,0.0702 0.3898,0.14914 0.58389,0.22578 0.23514,0.0929 0.47062,0.18461 0.70197,0.28675 0.17916,0.0791 0.35509,0.1659 0.53199,0.25043 0.24116,0.11526 0.48185,0.23163 0.71885,0.35682 0.17155,0.0906 0.34054,0.18717 0.50993,0.28287 0.22773,0.12869 0.45477,0.25932 0.67861,0.39705 0.17123,0.10531 0.34097,0.21518 0.50994,0.32568 0.22428,0.14672 0.44789,0.29589 0.66824,0.45154 0.16184,0.11429 0.32166,0.23264 0.48138,0.35164 0.22261,0.16589 0.44322,0.33509 0.66175,0.50993 0.14611,0.11686 0.29038,0.23606 0.43468,0.35682 0.22737,0.19035 0.4531,0.38538 0.67601,0.5852 0.13463,0.12065 0.26923,0.24188 0.40224,0.3659 0.22211,0.20714 0.44151,0.41949 0.65916,0.6358 0.13292,0.13208 0.26577,0.26423 0.39705,0.39965 0.21795,0.22489 0.43273,0.45644 0.64617,0.69029 0.11856,0.12986 0.23835,0.25801 0.35553,0.39056 0.21792,0.24658 0.43169,0.50083 0.64487,0.75646 0.1166,0.13979 0.23385,0.27799 0.34904,0.42041 0.22833,0.28235 0.45318,0.57178 0.67602,0.86417 0.0808,0.10594 0.1626,0.20937 0.24264,0.31659 0.27112,0.36322 0.53759,0.73461 0.80059,1.112 0.0356,0.0511 0.0723,0.1005 0.10769,0.15181 0.2784,0.4031 0.55197,0.8146 0.82135,1.23267 0.0215,0.0334 0.0435,0.0652 0.0649,0.0986 13.2188,20.62659 15.62372,58.74108 15.62372,58.74108 l 7.5491,0 c 0,0 -2.80475,-39.52571 -17.15093,-63.30973 -0.35021,-0.5806 -0.70896,-1.15042 -1.07306,-1.71146 -0.0762,-0.11745 -0.15413,-0.23248 -0.23097,-0.34904 -0.30098,-0.45654 -0.60685,-0.90597 -0.91736,-1.34814 -0.0904,-0.12877 -0.18125,-0.25658 -0.27249,-0.38408 -0.30271,-0.42302 -0.60947,-0.83839 -0.92125,-1.24694 -0.0948,-0.12419 -0.18857,-0.24959 -0.28416,-0.37239 -0.34306,-0.44059 -0.69178,-0.87156 -1.04582,-1.29365 -0.0638,-0.0761 -0.12659,-0.15423 -0.19074,-0.22967 -0.84881,-0.99811 -1.72883,-1.9402 -2.6418,-2.82215 -0.092,-0.0889 -0.18629,-0.17315 -0.27897,-0.26081 -0.35384,-0.33457 -0.71206,-0.66133 -1.07566,-0.97705 -0.14138,-0.12281 -0.28403,-0.24214 -0.4269,-0.36202 -0.3236,-0.27141 -0.65093,-0.53552 -0.98224,-0.79149 -0.16223,-0.12538 -0.32508,-0.24952 -0.48917,-0.37111 -0.33766,-0.25009 -0.68075,-0.48914 -1.02636,-0.72273 -0.17053,-0.1153 -0.33875,-0.23526 -0.51123,-0.34644 -0.10944,-0.0705 -0.21934,-0.14007 -0.32957,-0.2089 -0.37273,-0.23283 -0.74835,-0.45767 -1.13016,-0.67083 -0.0849,-0.0474 -0.17154,-0.0911 -0.25692,-0.13754 -0.35785,-0.19458 -0.72017,-0.38115 -1.08604,-0.55795 -0.0704,-0.034 -0.13954,-0.0705 -0.2102,-0.1038 -0.41284,-0.19474 -0.83165,-0.37482 -1.25473,-0.54626 -0.0959,-0.0389 -0.19161,-0.0779 -0.28805,-0.11549 -0.42609,-0.16631 -0.85713,-0.32251 -1.29365,-0.46452 -0.064,-0.0208 -0.12906,-0.0394 -0.19334,-0.0597 -0.44628,-0.14097 -0.89738,-0.27055 -1.35463,-0.38537 -0.0288,-0.007 -0.0569,-0.0163 -0.0856,-0.0234 -0.46532,-0.11497 -0.93753,-0.21137 -1.41433,-0.29843 -0.0895,-0.0163 -0.17867,-0.034 -0.26858,-0.0493 -0.47103,-0.0804 -0.94761,-0.14739 -1.4299,-0.19982 -0.0745,-0.008 -0.14972,-0.0146 -0.22447,-0.022 -0.50688,-0.0503 -1.0182,-0.0891 -1.53759,-0.1077 -0.12006,-0.004 -0.5311,-0.0112 -0.91218,-0.007 l 0,-0.0246 z m -0.0584,12.01914 c -6.57568,0.0232 -11.72239,3.76519 -16.14922,10.04947 -0.58379,0.82875 -1.14817,1.70206 -1.69589,2.60936 2.13502,2.99817 3.92155,5.76888 6.1815,5.76888 l 23.50759,0 c 2.28858,0 3.99234,-2.83456 6.05952,-5.87138 -0.42206,-0.69454 -0.85149,-1.37295 -1.29495,-2.02157 -4.34281,-6.35218 -9.42843,-10.23998 -15.83651,-10.50881 a 2.7881413,2.7881413 0 0 0 -10e-4,0 c 0.0124,5.2e-4 -0.40935,-0.0137 -0.77074,-0.026 z m 78.9101,5.47952 0,3.36194 c 0,0.86569 1.58299,0.79151 2.24345,0.7941 0.68989,0.003 2.06032,-0.0193 2.10202,-0.7941 l 0,-3.36194 z m -162.05277,0 0,3.36194 c 0,0.86569 1.5843,0.79151 2.24476,0.7941 0.68988,0.003 2.06033,-0.0193 2.10201,-0.7941 l 0,-3.36194 z m 177.16655,-0.29194 c -6.24648,0.0355 -9.18012,0.91219 -9.18012,0.91217 l 0,2.09813 c 0,0 6.58525,2.69043 29.9473,-0.75517 -9.04661,-1.80105 -15.9088,-2.28271 -20.76718,-2.25513 z m -25.88209,0 c -4.85839,-0.0276 -11.72186,0.45408 -20.76848,2.25513 23.36208,3.4456 29.9473,0.75517 29.9473,0.75517 l 0,-2.09813 c 0,0 -2.93234,-0.87671 -9.17882,-0.91217 z m -136.17067,0 c -6.24649,0.0355 -9.17882,0.91219 -9.17882,0.91217 l 0,2.09813 c 0,0 6.58522,2.69043 29.94729,-0.75517 -9.04661,-1.80105 -15.91009,-2.28271 -20.76847,-2.25513 z m -25.8808,0 c -4.85837,-0.0276 -11.72185,0.45408 -20.76848,2.25513 23.36208,3.4456 29.9473,0.75517 29.9473,0.75517 l 0,-2.09813 c 0,0 -2.93234,-0.87671 -9.17882,-0.91217 z m 171.13297,-6.46955 0,4.52972 c 0,1.16616 2.81307,1.06569 3.98606,1.06918 1.22526,0.003 3.65768,-0.0254 3.73173,-1.06918 l 0,-4.52972 z m -162.05146,0 0,4.52972 c 0,1.16616 2.81307,1.06569 3.98605,1.06918 1.22526,0.003 3.65769,-0.0254 3.73173,-1.06918 l 0,-4.52972 z"
           inkscape:connector-curvature="0" />
        <path
           style="font-style:italic;font-variant:normal;font-weight:300;font-stretch:normal;font-size:105px;line-height:125%;font-family:'WeblySleek UI';-inkscape-font-specification:'WeblySleek UI Light Italic';letter-spacing:0px;word-spacing:0px;fill:#ffffff;fill-opacity:1;stroke:none;stroke-width:1px;stroke-linecap:butt;stroke-linejoin:miter;stroke-opacity:1"
           d="m 935.6426,620.91564 c -0.7375,0 -1.4148,0.26904 -1.9743,0.7799 -0.5682,0.51877 -0.8656,1.20976 -0.8656,1.99322 0,0.81987 0.2781,1.53806 0.8227,2.08267 a 0.32640001,0.32640001 0 0 0 0.01,0.005 c 0.5601,0.5357 1.2512,0.81896 2.0122,0.81896 0.7838,1e-5 1.4882,-0.29631 2.0486,-0.85675 0.5606,-0.56065 0.8568,-1.26606 0.8568,-2.04992 0,-0.82479 -0.3119,-1.53333 -0.9085,-2.03228 -0.5614,-0.48728 -1.2442,-0.74083 -1.9969,-0.74083 z m 144.8611,0 c -0.7375,0 -1.4148,0.26904 -1.9743,0.7799 -0.5682,0.51877 -0.8656,1.20976 -0.8656,1.99322 0,0.81987 0.2781,1.53806 0.8227,2.08267 a 0.32640001,0.32640001 0 0 0 0.01,0.005 c 0.5601,0.5357 1.2512,0.81896 2.0121,0.81896 0.7839,1e-5 1.4882,-0.29631 2.0487,-0.85675 0.5606,-0.56065 0.8567,-1.26606 0.8567,-2.04992 0,-0.82478 -0.3118,-1.53333 -0.9084,-2.03228 -0.5614,-0.48728 -1.2443,-0.74083 -1.997,-0.74083 z m -40.2222,3.73697 a 0.32640001,0.32640001 0 0 0 -0.092,0.0151 l -3.2745,1.02559 a 0.32640001,0.32640001 0 0 0 -0.2218,0.24316 l -1.8294,8.53859 -5.8222,0 a 0.32640001,0.32640001 0 0 0 -0.3187,0.2545 l -0.6287,2.77816 a 0.32640001,0.32640001 0 0 0 0.3187,0.39814 l 5.7806,0 -4.4778,20.73223 c -3e-4,0.001 -6e-4,0.003 0,0.004 l 0,0.003 c -0.4442,1.8672 -0.669,3.50946 -0.669,4.93139 0,1.96891 0.4604,3.4999 1.4275,4.53828 0.9671,1.03838 2.413,1.54216 4.2573,1.54216 0.6501,0 1.5044,-0.16196 2.5967,-0.47373 l 0.01,-10e-4 c 1.0984,-0.29185 2.0683,-0.66431 2.9092,-1.11883 a 0.32640001,0.32640001 0 0 0 0.1638,-0.21545 l 0.6614,-2.91045 a 0.32640001,0.32640001 0 0 0 -0.4497,-0.37042 c -2.6107,1.14077 -4.4097,1.6921 -5.2263,1.6921 -1.0024,0 -1.6366,-0.24605 -1.9957,-0.67533 -0.376,-0.47181 -0.5884,-1.19514 -0.5884,-2.20615 0,-0.87641 0.2034,-2.37955 0.6199,-4.46269 l 0,-0.004 4.4765,-21.00438 8.6646,0 a 0.32640001,0.32640001 0 0 0 0.3163,-0.24694 l 0.6942,-2.77817 a 0.32640001,0.32640001 0 0 0 -0.3163,-0.40569 l -8.6897,0 2.031,-9.42684 a 0.32640001,0.32640001 0 0 0 -0.3238,-0.39561 z m -79.4377,8.99594 c -4.5692,0 -8.9283,3.27392 -13.097,9.59567 l 1.4124,-8.38866 a 0.32640001,0.32640001 0 0 0 -0.3213,-0.38049 l -3.0427,0 a 0.32640001,0.32640001 0 0 0 -0.3251,0.2986 c -0.2189,2.51673 -0.7129,5.64771 -1.483,9.38778 l -5.2236,24.43896 a 0.32640001,0.32640001 0 0 0 0.3187,0.39436 l 3.0755,0 a 0.32640001,0.32640001 0 0 0 0.3188,-0.25828 l 3.3728,-15.77565 c 0.475,-2.24522 1.5049,-4.61413 3.0982,-7.10226 a 0.32640001,0.32640001 0 0 0 10e-4,-10e-4 c 1.5922,-2.5082 3.442,-4.59608 5.55,-6.26944 2.1265,-1.69256 4.0351,-2.50853 5.7164,-2.50853 1.8051,0 2.9758,0.54607 3.6601,1.63288 a 0.32640001,0.32640001 0 0 0 0,0.006 c 0.7196,1.08979 1.1037,2.71423 1.1037,4.88099 0,0.85603 -0.2919,2.73982 -0.8858,5.55506 a 0.32640001,0.32640001 0 0 0 0,10e-4 l -4.0015,19.44709 a 0.32640001,0.32640001 0 0 0 0.32,0.39185 l 3.0755,0 a 0.32640001,0.32640001 0 0 0 0.3188,-0.25829 l 3.374,-15.9081 a 0.32640001,0.32640001 0 0 0 10e-4,-10e-4 c 0.4745,-2.2863 1.5451,-4.69812 3.2254,-7.22951 a 0.32640001,0.32640001 0 0 0 0,-10e-4 c 1.6811,-2.55441 3.5438,-4.6081 5.5828,-6.1699 a 0.32640001,0.32640001 0 0 0 0,-10e-4 c 2.0599,-1.58292 3.9149,-2.346 5.5563,-2.346 1.6307,0 2.7839,0.48572 3.5656,1.45018 0.7817,0.96447 1.2007,2.45623 1.2007,4.50679 0,0.97329 -0.2935,3.04177 -0.8869,6.11951 l -3.9688,19.4471 a 0.32640001,0.32640001 0 0 0 0.32,0.39184 l 3.0427,0 a 0.32640001,0.32640001 0 0 0 0.3188,-0.25828 l 4.0028,-18.95069 a 0.32640001,0.32640001 0 0 0 0,-0.003 c 0.6195,-3.00904 0.9323,-5.257 0.9323,-6.77972 0,-3.05532 -0.6391,-5.39448 -1.9705,-6.9813 -1.3314,-1.58682 -3.3411,-2.37372 -5.9305,-2.37372 -2.4213,0 -4.8526,0.93905 -7.2749,2.77816 -2.2103,1.65825 -4.2707,4.01108 -6.2014,6.98508 -0.1042,-3.1778 -0.6672,-5.58856 -1.8029,-7.14635 l -10e-4,-0.003 c -1.2584,-1.74598 -3.3173,-2.61436 -6.0515,-2.61436 z m 53.3142,0 c -3.1752,0 -6.1898,0.97217 -9.0148,2.90037 -2.8044,1.90696 -5.0466,4.53523 -6.7218,7.86325 a 0.32640001,0.32640001 0 0 0 -10e-4,0 c -1.655,3.31006 -2.4808,6.95752 -2.4808,10.92742 0,4.53055 1.1431,8.10668 3.4572,10.67039 2.3151,2.54212 5.5894,3.81131 9.7343,3.81131 3.2511,0 6.3626,-0.81003 9.3172,-2.4216 a 0.32640001,0.32640001 0 0 0 0.165,-0.22553 l 0.596,-3.17503 a 0.32640001,0.32640001 0 0 0 -0.4788,-0.34648 c -3.3398,1.83361 -6.3849,2.73784 -9.1358,2.73784 -3.1513,0 -5.5435,-0.94524 -7.2635,-2.8336 l 0,-10e-4 c -6e-4,-6.4e-4 0,-5.8e-4 0,-10e-4 -1.699,-1.91297 -2.5607,-4.54366 -2.5614,-7.94641 0,-10e-4 0,-0.003 0,-0.004 l 0.055,-1.73745 c 8.4045,-0.1522 14.5309,-1.10524 18.3774,-2.92809 3.918,-1.84641 5.9418,-4.84026 5.9418,-8.82836 0,-2.59017 -0.9406,-4.69191 -2.797,-6.20519 -1.8314,-1.51092 -4.2435,-2.25654 -7.1867,-2.25654 z m 52.3881,0 c -2.3407,0 -4.4137,0.75826 -6.1661,2.26032 -1.4578,1.24697 -2.8259,3.08392 -4.1288,5.43788 l 0.9928,-6.49622 a 0.32640001,0.32640001 0 0 0 -0.3225,-0.37546 l -3.0428,0 a 0.32640001,0.32640001 0 0 0 -0.325,0.30112 c -0.2407,3.08526 -0.8878,7.03096 -1.9441,11.82827 a 0.32640001,0.32640001 0 0 0 0,0.003 l -4.697,21.99343 a 0.32640001,0.32640001 0 0 0 0.3187,0.39436 l 3.0755,0 a 0.32640001,0.32640001 0 0 0 0.3188,-0.25828 l 3.175,-14.9819 c 1.0508,-4.90346 2.7554,-8.91392 5.1015,-12.04246 l 0,-0.001 c 2.3706,-3.13155 4.72,-4.63151 7.0493,-4.63151 1.0967,0 2.1981,0.35948 3.325,1.1037 a 0.32640001,0.32640001 0 0 0 0.1802,0.0542 l 0.1323,0 a 0.32640001,0.32640001 0 0 0 0.3213,-0.26837 l 0.5619,-3.10952 a 0.32640001,0.32640001 0 0 0 -0.1777,-0.35152 c -1.1684,-0.57274 -2.4226,-0.85928 -3.7483,-0.85928 z m 36.2484,0 c -3.3489,0 -6.453,0.98325 -9.2807,2.93565 -2.8285,1.93097 -5.0505,4.62741 -6.6588,8.06736 -1.6089,3.44143 -2.4115,7.25125 -2.4115,11.41627 0,4.22252 1.0784,7.59715 3.257,10.07067 a 0.32640001,0.32640001 0 0 0 0,10e-4 c 2.178,2.45024 5.1558,3.68153 8.8434,3.68153 1.395,0 2.7063,-0.19123 3.9298,-0.57579 1.227,-0.36358 2.6775,-1.02478 4.3669,-1.98062 a 0.32640001,0.32640001 0 0 0 0.1575,-0.21419 l 0.8278,-3.80249 a 0.32640001,0.32640001 0 0 0 -0.5141,-0.33136 c -1.6174,1.20214 -3.076,2.08144 -4.3669,2.64082 -1.2828,0.55589 -2.6244,0.83282 -4.0368,0.83282 -2.7937,0 -4.9166,-0.91542 -6.4648,-2.76052 -1.5265,-1.84612 -2.3044,-4.39614 -2.3044,-7.69442 0,-3.48845 0.6312,-6.68338 1.8912,-9.59441 1.2595,-2.90986 2.9984,-5.17256 5.2186,-6.81121 l 0,-0.001 c 2.244,-1.63943 4.6481,-2.44931 7.2472,-2.44931 2.9282,0 5.297,0.93384 7.1778,2.8147 a 0.32640001,0.32640001 0 0 0 0.5481,-0.15624 l 0.7937,-3.3741 a 0.32640001,0.32640001 0 0 0 -0.1348,-0.34522 c -1.3016,-0.87525 -2.5901,-1.48624 -3.8642,-1.82817 l -0.01,-0.001 c -1.2675,-0.36158 -2.6736,-0.54051 -4.2182,-0.54051 z m 23.3831,0 c -3.2616,0 -6.0009,0.9764 -8.1568,2.92809 -2.1331,1.92883 -3.2166,4.38527 -3.2166,7.28747 0,1.97581 0.5284,3.68689 1.5875,5.09139 1.0572,1.40193 2.8823,2.88127 5.4807,4.48033 2.1445,1.33502 3.5998,2.49548 4.3481,3.43081 0.7465,0.93317 1.1187,2.05186 1.1187,3.40182 0,2.06694 -0.6595,3.55129 -1.9881,4.56852 -1.3342,1.02156 -3.2643,1.55351 -5.8209,1.55351 -1.3495,0 -2.7357,-0.24565 -4.1603,-0.7421 -1.427,-0.4973 -2.6852,-1.15532 -3.7811,-1.9718 a 0.32640001,0.32640001 0 0 0 -0.5153,0.19654 l -0.6615,3.24182 a 0.32640001,0.32640001 0 0 0 0.1487,0.3427 c 2.5454,1.57682 5.4775,2.36364 8.7704,2.36364 3.5591,0 6.4329,-0.87708 8.5751,-2.65469 2.1633,-1.79899 3.2594,-4.24076 3.2594,-7.2295 0,-1.89205 -0.5653,-3.58058 -1.6857,-5.02337 l 0,-0.003 c -1.0992,-1.46441 -2.915,-2.94849 -5.4479,-4.48159 -2.1222,-1.26894 -3.5645,-2.39613 -4.3116,-3.33001 -0.7188,-0.92607 -1.086,-2.12251 -1.086,-3.63239 0,-1.95153 0.6701,-3.45787 2.0348,-4.61262 a 0.32640001,0.32640001 0 0 0 0,-0.003 c 1.3711,-1.18125 3.0897,-1.77272 5.2111,-1.77272 2.8128,0 5.2563,0.68875 7.3617,2.06378 a 0.32640001,0.32640001 0 0 0 0.499,-0.20664 l 0.6615,-3.17503 a 0.32640001,0.32640001 0 0 0 -0.1689,-0.35657 c -1.0513,-0.5485 -2.3582,-0.97464 -3.9234,-1.28765 -1.5591,-0.31182 -2.9354,-0.46869 -4.1326,-0.46869 z m -229.23136,0.82652 a 0.32640001,0.32640001 0 0 0 -0.32129,0.38175 l 5.88769,33.86706 a 0.32640001,0.32640001 0 0 0 0.3213,0.27089 l 2.7781,0 a 0.32640001,0.32640001 0 0 0 0.2797,-0.15875 l 20.27366,-33.86706 a 0.32640001,0.32640001 0 0 0 -0.2797,-0.49389 l -3.4724,0 a 0.32640001,0.32640001 0 0 0 -0.2822,0.16127 l -16.43836,28.07891 a 0.32640001,0.32640001 0 0 0 -0.014,0.0264 l -0.6275,1.33679 c -0.045,-0.83904 -0.082,-1.67376 -0.2431,-2.57908 l -4.43,-26.75095 a 0.32640001,0.32640001 0 0 0 -0.3225,-0.27341 l -3.10954,0 z m 34.82586,0 a 0.32640001,0.32640001 0 0 0 -0.3188,0.25828 c -3.594,16.91164 -5.4847,25.85699 -5.6899,26.9286 a 0.32640001,0.32640001 0 0 0 0,0.008 c -0.1794,1.05402 -0.2696,2.10761 -0.2696,3.16243 0,1.55012 0.3635,2.76688 1.1377,3.59586 0.7743,0.82898 1.9309,1.22844 3.3893,1.22844 1.1315,0 2.2621,-0.2676 3.3804,-0.79251 a 0.32640001,0.32640001 0 0 0 0.1801,-0.22426 l 0.562,-2.54633 a 0.32640001,0.32640001 0 0 0 -0.441,-0.37294 c -0.8901,0.36026 -1.7835,0.53799 -2.6887,0.53799 -0.6309,0 -1.0478,-0.14928 -1.3116,-0.40444 -0.2638,-0.25516 -0.4132,-0.64845 -0.4132,-1.25363 0,-1.14167 0.2594,-3.05179 0.7862,-5.6861 l 0,-0.004 5.0926,-24.04082 a 0.32640001,0.32640001 0 0 0 -0.3188,-0.39436 l -3.0767,0 z m 144.8611,0 a 0.32640001,0.32640001 0 0 0 -0.3188,0.25828 c -3.594,16.91164 -5.4846,25.857 -5.6899,26.9286 a 0.32640001,0.32640001 0 0 0 0,0.008 c -0.1795,1.05402 -0.2697,2.10761 -0.2697,3.16243 0,1.55012 0.3635,2.76688 1.1377,3.59586 0.7743,0.82898 1.9309,1.22844 3.3893,1.22844 1.1315,0 2.2621,-0.2676 3.3804,-0.79251 a 0.32640001,0.32640001 0 0 0 0.1802,-0.22426 l 0.5619,-2.54633 a 0.32640001,0.32640001 0 0 0 -0.441,-0.37294 c -0.8901,0.36026 -1.7835,0.53799 -2.6887,0.53799 -0.6309,0 -1.0478,-0.14928 -1.3116,-0.40444 -0.2638,-0.25516 -0.4132,-0.64845 -0.4132,-1.25363 0,-1.14167 0.2594,-3.05179 0.7862,-5.6861 l 0,-0.004 5.0927,-24.04082 a 0.32640001,0.32640001 0 0 0 -0.3188,-0.39436 l -3.0767,0 z m -62.9716,2.60428 c 2.2818,0 3.9478,0.46861 5.0284,1.34939 1.0806,0.88078 1.6241,2.18342 1.6241,4.0129 0,2.83034 -1.5547,4.80688 -4.8508,6.07792 -3.2311,1.24599 -8.2953,1.89251 -15.1016,1.92015 0.8333,-3.88218 2.4216,-7.059 4.8029,-9.52386 2.4867,-2.57318 5.2986,-3.8365 8.497,-3.8365 z"
           id="path4195"
           inkscape:connector-curvature="0" />
      </g>
      <path
         inkscape:connector-curvature="0"
         d="m 551.51919,971.25627 c 19.37221,0 30.37372,-11.719 30.37372,-24.87297 0,-10.76234 -5.50076,-17.45891 -15.18686,-21.28552 l -9.44695,-3.70703 c -7.05531,-2.75038 -11.47983,-4.06578 -11.47983,-7.7728 0,-3.46787 3.10912,-5.26159 8.13155,-5.26159 5.73991,0 10.28401,1.9133 15.5456,5.62033 l 10.28402,-12.91481 c -7.1749,-7.05531 -16.98059,-10.4036 -25.82962,-10.4036 -16.98059,0 -28.93875,10.88193 -28.93875,24.15548 0,11.24067 7.29448,18.29598 15.66519,21.64427 l 9.68611,4.06577 c 6.57699,2.6308 10.52318,3.82661 10.52318,7.53364 0,3.46787 -2.6308,5.50075 -8.84904,5.50075 -5.73991,0 -12.67565,-3.10912 -18.1764,-7.53364 l -11.71899,14.11063 c 8.37071,7.53364 19.61138,11.12109 29.41707,11.12109 z m -98.43807,-1.43498 20.56803,0 0,-26.06879 7.89239,0 13.39313,26.06879 22.95967,0 -16.86101,-30.13456 c 7.53364,-4.06577 12.55607,-11.36025 12.55607,-22.48134 0,-19.37221 -14.34979,-25.11213 -31.09121,-25.11213 l -29.41707,0 0,77.72803 z m 20.56803,-42.33188 0,-19.13305 7.41406,0 c 8.13155,0 12.43648,2.15246 12.43648,8.84903 0,6.69657 -4.30493,10.28402 -12.43648,10.28402 l -7.41406,0 z m -63.43242,43.76686 c 19.37221,0 30.37372,-11.719 30.37372,-24.87297 0,-10.76234 -5.50076,-17.45891 -15.18686,-21.28552 l -9.44695,-3.70703 c -7.05531,-2.75038 -11.47983,-4.06578 -11.47983,-7.7728 0,-3.46787 3.10912,-5.26159 8.13155,-5.26159 5.73991,0 10.28401,1.9133 15.5456,5.62033 l 10.28402,-12.91481 c -7.1749,-7.05531 -16.98059,-10.4036 -25.82962,-10.4036 -16.98059,0 -28.93875,10.88193 -28.93875,24.15548 0,11.24067 7.29448,18.29598 15.66519,21.64427 l 9.68611,4.06577 c 6.57699,2.6308 10.52318,3.82661 10.52318,7.53364 0,3.46787 -2.6308,5.50075 -8.84904,5.50075 -5.73991,0 -12.67565,-3.10912 -18.1764,-7.53364 l -11.71899,14.11063 c 8.37071,7.53364 19.61138,11.12109 29.41707,11.12109 z"
         style="font-style:normal;font-variant:normal;font-weight:900;font-stretch:normal;font-size:119.58158112px;line-height:125%;font-family:'Source Sans Pro';-inkscape-font-specification:'Source Sans Pro Heavy';letter-spacing:0px;word-spacing:0px;fill:#ffffff;fill-opacity:1;stroke:none;stroke-width:1px;stroke-linecap:butt;stroke-linejoin:miter;stroke-opacity:1"
         id="path4708" />
    </g>
  </g>
</svg>
